<svg width="192" height="145" viewBox="0 0 192 145" fill="none" xmlns="http://www.w3.org/2000/svg">
<path d="M156.336 47.8082L138.929 59.3622L139.366 79.7535L156.777 91.2484L175.756 79.8569L176.187 58.7603L156.336 47.8082Z" fill="white"/>
<path d="M138.937 82.8688L137.067 81.7876L157.922 45.666L159.792 46.7472L138.937 82.8688Z" fill="#E10098"/>
<path d="M136.637 78.901H178.351V81.0634H136.637V78.901Z" fill="#E10098"/>
<path d="M158.327 92.1644L137.463 80.1182L138.544 78.2482L159.408 90.2944L158.327 92.1644ZM176.452 60.7654L155.587 48.7209L156.668 46.8509L177.532 58.8971L176.452 60.7654Z" fill="#E10098"/>
<path d="M138.549 60.7586L137.468 58.8886L158.351 46.839L159.432 48.709L138.549 60.7586Z" fill="#E10098"/>
<path d="M176.068 82.8688L155.209 46.7438L157.079 45.6626L177.938 81.7876L176.068 82.8688ZM138.291 57.4538H140.453V81.5462H138.291V57.4538ZM174.548 57.4538H176.711V81.5462H174.548V57.4538Z" fill="#E10098"/>
<path d="M157.96 91.2481L157.016 89.6127L175.164 79.1356L176.107 80.771L157.96 91.2481Z" fill="#E10098"/>
<path d="M179.575 82.25C178.971 83.2933 177.978 84.0546 176.814 84.3671C175.65 84.6797 174.409 84.5181 173.363 83.9177C172.32 83.3136 171.559 82.3206 171.246 81.1563C170.934 79.992 171.095 78.7513 171.696 77.7059C172.3 76.6626 173.293 75.9013 174.457 75.5888C175.621 75.2762 176.862 75.4378 177.908 76.0382C180.095 77.3013 180.838 80.0757 179.574 82.25M143.292 61.2958C142.688 62.3391 141.695 63.1004 140.531 63.4129C139.366 63.7255 138.126 63.5639 137.08 62.9635C136.037 62.3594 135.275 61.3661 134.962 60.2014C134.65 59.0367 134.812 57.7955 135.413 56.75C136.017 55.7067 137.01 54.9454 138.174 54.6329C139.338 54.3203 140.579 54.4819 141.624 55.0823C142.668 55.6864 143.429 56.6794 143.742 57.8437C144.054 59.008 143.893 60.2487 143.292 61.2941M135.426 82.25C134.826 81.2046 134.664 79.9639 134.977 78.7996C135.289 77.6353 136.051 76.6423 137.094 76.0382C138.139 75.4378 139.38 75.2762 140.544 75.5888C141.709 75.9013 142.702 76.6626 143.306 77.7059C143.906 78.7513 144.068 79.992 143.755 81.1563C143.443 82.3206 142.681 83.3136 141.638 83.9177C139.45 85.1672 136.674 84.4277 135.426 82.2517M171.709 61.2975C171.109 60.2521 170.947 59.0114 171.26 57.8471C171.572 56.6828 172.334 55.6898 173.377 55.0857C174.422 54.4853 175.663 54.3237 176.827 54.6363C177.992 54.9488 178.985 55.7101 179.589 56.7534C180.189 57.7988 180.351 59.0395 180.038 60.2038C179.726 61.3681 178.964 62.3611 177.921 62.9652C176.876 63.5656 175.635 63.7272 174.471 63.4146C173.306 63.1021 172.313 62.3408 171.709 61.2975M157.501 95C156.602 95 155.723 94.7334 154.975 94.2338C154.227 93.7342 153.645 93.0241 153.301 92.1934C152.957 91.3627 152.867 90.4486 153.042 89.5667C153.218 88.6849 153.651 87.8749 154.287 87.2392C154.923 86.6036 155.733 86.1708 156.615 85.9955C157.497 85.8203 158.411 85.9106 159.242 86.2549C160.072 86.5992 160.782 87.1822 161.281 87.9299C161.781 88.6777 162.047 89.5568 162.047 90.4559C162.043 91.6604 161.563 92.8146 160.712 93.6662C159.86 94.5177 158.705 94.9973 157.501 95M157.501 53.0916C156.904 53.0925 156.312 52.9755 155.76 52.7474C155.208 52.5193 154.707 52.1845 154.284 51.7622C153.862 51.3399 153.527 50.8384 153.299 50.2865C153.071 49.7345 152.954 49.143 152.955 48.5458C152.955 47.3404 153.434 46.1844 154.286 45.332C155.138 44.4797 156.295 44.0009 157.5 44.0009C158.705 44.0009 159.861 44.4797 160.714 45.332C161.566 46.1844 162.045 47.3404 162.045 48.5458C162.046 49.1427 161.928 49.7339 161.7 50.2855C161.472 50.8372 161.138 51.3384 160.715 51.7605C160.293 52.1826 159.792 52.5172 159.24 52.7454C158.689 52.9735 158.098 53.0906 157.501 53.0899" fill="#E10098"/>
<path d="M127.431 69.8355L74.1505 70.267L74.2978 55.0582C126.531 54.8415 126.814 59.8219 127.433 69.8375L127.431 69.8355Z" fill="white"/>
<path d="M73.4219 71.0014C73.1917 70.7615 73.0592 70.4444 73.0505 70.112L72.9878 55.0084C72.9924 54.6623 73.1311 54.3316 73.3748 54.0858C73.6185 53.8401 73.9481 53.6986 74.2941 53.6912C125.792 53.4775 128.121 58.1878 128.745 69.7748C128.788 70.1463 128.654 70.5146 128.381 70.7734C128.166 71.0693 127.807 71.234 127.439 71.1981L74.3657 71.4203C74.0077 71.4061 73.6728 71.258 73.42 71.0034L73.4219 71.0014ZM75.615 56.3604L75.6663 68.7383L126.012 68.5294C126.224 66.5701 125.706 64.6014 124.558 63C123.409 61.3985 121.711 60.2766 119.787 59.8488C113.169 57.359 99.5825 56.314 75.615 56.3604V56.3604Z" fill="#E10098"/>
<path d="M74.4232 85.2655L74.5199 70.6332L127.28 70.727C127.496 84.8349 105.263 85.9753 74.4252 85.2635L74.4232 85.2655Z" fill="white"/>
<path d="M73.4831 86.2133C73.2683 85.9636 73.1383 85.6522 73.1116 85.3239L72.8936 70.6929C73.05 70.3124 73.3507 70.0093 73.7298 69.8497C73.8702 69.5502 74.1111 69.3073 74.4094 69.1644L127.481 68.9442C128.224 68.9647 128.823 69.5582 128.849 70.3014C129.003 73.6422 127.693 76.8788 125.267 79.1781C118.217 86.2873 101.229 87.1956 74.4797 86.575C74.1145 86.5746 73.761 86.4459 73.4811 86.2113L73.4831 86.2133ZM75.8883 71.9903L75.9394 83.8392C96.3416 84.3308 116.585 84.0383 123.53 77.138C125.049 75.7212 125.993 73.7949 126.182 71.7265L75.8883 71.9903Z" fill="#E10098"/>
<path d="M74.3503 55.4237L74.3939 65.9137C74.3981 65.9766 74.3888 66.0398 74.3668 66.099C74.3447 66.1581 74.3103 66.2119 74.2658 66.2567C74.2214 66.3016 74.1679 66.3364 74.1089 66.359C74.0499 66.3815 73.9868 66.3913 73.9238 66.3876L60.4616 57.7371C59.9035 57.3795 59.6548 56.6942 59.8449 56.0601C60.035 55.426 60.6272 54.9949 61.29 55.0059L74.1382 55.0057C74.1382 55.0057 74.3495 55.2152 74.3503 55.4237V55.4237Z" fill="white"/>
<path d="M59.1552 58.5291C58.8085 58.1765 58.5579 57.7409 58.4275 57.2639C58.2971 56.7869 58.2912 56.2844 58.4103 55.8044C58.7731 54.6092 59.8789 53.7904 61.1297 53.8009L73.9775 53.6945C74.4145 53.7172 74.8279 53.9001 75.1386 54.2083C75.4493 54.5164 75.6356 54.9283 75.662 55.3651L75.7055 65.8551C75.7237 66.4607 75.4016 67.0304 74.8718 67.3276C74.3421 67.6248 73.6674 67.6099 73.141 67.2837L59.6787 58.6331L59.1552 58.5291ZM72.9915 56.3752L61.1406 56.4244L73.0785 64.0842L72.9915 56.3752Z" fill="#E10098"/>
<path d="M127.441 72.038C127.338 69.179 125.034 66.8934 122.174 66.8148L74.717 66.9586L74.6968 74.8784L121.855 77.7763C123.374 77.8054 124.835 77.2054 125.892 76.1155C126.95 75.0255 127.512 73.5501 127.443 72.0361L127.441 72.038Z" fill="white"/>
<path d="M73.5434 75.6188C73.3132 75.3789 73.1807 75.0618 73.172 74.7294L73.1389 66.7568C73.1434 66.4107 73.2822 66.0799 73.5259 65.8342C73.7696 65.5885 74.0992 65.447 74.4452 65.4396L121.855 65.3471C125.619 65.3354 128.684 68.375 128.702 72.1371C128.709 74.0251 127.94 75.8277 126.573 77.1275C125.197 78.4036 123.367 79.072 121.493 78.9834L74.334 76.0855C74.0211 76.0337 73.7411 75.8658 73.5454 75.6168L73.5434 75.6188ZM75.6649 67.8987L75.6338 73.1951L121.745 76.2015C122.886 76.2755 124.007 75.8755 124.836 75.0874C125.664 74.2993 126.132 73.1881 126.082 72.0418C126.066 69.7546 124.208 67.9117 121.921 67.9153L75.6649 67.8987Z" fill="#E10098"/>
<path d="M29.3355 75.7491C29.1773 75.7739 29.0312 75.8485 28.9184 75.9622C28.8057 76.0759 28.7322 76.2227 28.7088 76.381L25.2177 82.0064C24.7661 82.6435 23.9629 82.9281 23.1912 82.7385C22.8204 82.6431 22.4896 82.4325 22.2463 82.1369C22.0029 81.8414 21.8597 81.4763 21.8372 81.0941L21.5171 66.9886L66.4812 66.6251L74.2757 74.3551L74.3192 84.8451C58.9798 83.8804 43.8446 80.82 29.3355 75.7491V75.7491Z" fill="white"/>
<path d="M21.1842 83.0201C20.5996 82.4168 20.2539 81.5883 20.284 80.7681L20.227 67.0293C20.1841 66.6577 20.3183 66.2894 20.5906 66.0307C20.8433 65.7916 21.187 65.6742 21.5333 65.7121L66.6848 65.4717C66.9452 65.4626 67.2019 65.5351 67.4192 65.679L75.265 73.46C75.5411 73.5905 75.7642 73.8117 75.8969 74.0867L75.9405 84.5767C75.9578 84.966 75.7824 85.3404 75.4726 85.5738C75.3465 85.7083 75.1911 85.8119 75.0184 85.8764C74.8457 85.9409 74.6604 85.9646 74.477 85.9457L73.6902 85.8978C58.6214 84.5939 43.7743 81.4137 29.4935 76.4308L26.2645 81.6892C26.0155 82.0951 25.6791 82.4402 25.2798 82.6994C24.8805 82.9587 24.4284 83.1255 23.9564 83.1878C23.4844 83.25 23.0045 83.2062 22.5516 83.0593C22.0988 82.9125 21.6844 82.6664 21.3387 82.339L21.1842 83.0201ZM22.9603 68.3808L22.9588 80.8081C22.9655 80.9172 23.012 81.02 23.0896 81.0969C23.1672 81.1738 23.2703 81.2195 23.3794 81.2253C23.4715 81.2099 23.5564 81.166 23.6221 81.0997C23.6878 81.0334 23.7311 80.9482 23.7457 80.856L27.2367 75.2306C27.7387 74.3849 28.7656 74.005 29.6972 74.3295C43.6562 79.1158 58.1445 82.1899 72.8443 83.4843L72.8086 74.8823L65.7527 67.8847L22.9603 68.3808Z" fill="#E10098"/>
<path d="M10.7339 67.0155L21.2239 66.972L21.2909 83.1259L9.27685 69.4366C8.85594 68.9526 8.79009 68.2488 9.12409 67.6948C9.45809 67.1408 10.1079 66.8687 10.7339 67.0195L10.7339 67.0155Z" fill="white"/>
<path d="M20.6634 84.0704L8.7007 70.4321C8.00894 69.6051 7.87035 68.4335 8.29311 67.4701C8.71588 66.5066 9.70038 65.8417 10.7799 65.8078L21.2699 65.7642C21.616 65.7688 21.9467 65.9075 22.1925 66.1512C22.4382 66.3949 22.5797 66.7245 22.5871 67.0705L22.6537 83.1182C22.5694 83.6613 22.1503 84.0839 21.6098 84.1707C21.2915 84.2468 20.959 84.2108 20.6654 84.0685L20.6634 84.0704ZM10.7375 68.3784L20.5894 79.5081L20.1773 68.3392L10.7375 68.3784Z" fill="#E10098"/>
<path d="M74.3814 75.7215L62.1236 66.8044L74.3425 66.8068L74.3814 75.7215Z" fill="white"/>
<path d="M61.1348 67.8016C60.7636 67.4531 60.6395 66.9187 60.8145 66.4381C60.8536 66.1743 60.976 65.93 61.1638 65.7406C61.3516 65.5513 61.5949 65.4269 61.8583 65.3855L74.0767 65.2817C74.8202 65.3022 75.4186 65.8957 75.4453 66.6389L75.4862 75.5556C75.4349 75.7862 75.3195 75.9976 75.1531 76.1654C74.9868 76.3331 74.7763 76.4503 74.5461 76.5035C74.3307 76.6329 74.0826 76.6974 73.8314 76.6894C73.5802 76.6814 73.3367 76.6011 73.13 76.4582L60.9788 67.6469L61.1348 67.8016ZM72.9894 68.1713L66.1731 68.1996L72.9589 73.155L72.9894 68.1713Z" fill="#E10098"/>
<path d="M74.3855 75.7176L66.0202 69.3016C65.7768 69.1497 65.5888 68.9233 65.4842 68.6561C65.3795 68.3889 65.3637 68.0951 65.4391 67.8182C65.5146 67.5413 65.6772 67.2961 65.903 67.119C66.1287 66.9418 66.4056 66.8421 66.6924 66.8346L74.3505 66.8029L74.3855 75.7176Z" fill="white"/>
<path d="M64.8141 70.0952C64.1189 69.3941 63.857 68.3745 64.1225 67.4235C64.2789 66.8635 64.6138 66.37 65.0762 66.0177C65.5387 65.6655 66.1035 65.4738 66.6848 65.4717L74.3429 65.44C75.0864 65.4605 75.6847 66.0539 75.7114 66.7972L75.7484 75.7139C75.7564 75.972 75.6894 76.227 75.5554 76.4478C75.4214 76.6687 75.2263 76.8459 74.9936 76.958C74.7609 77.0702 74.5007 77.1124 74.2445 77.0796C73.9882 77.0468 73.7471 76.9403 73.5501 76.7732L65.2382 70.4101L64.8141 70.0952ZM66.7471 68.1461L73.0094 72.9975L72.9889 68.0691L66.6957 68.0952L66.7471 68.1461Z" fill="#E10098"/>
<path d="M13.48 123.48C11.2933 123.48 9.34667 122.947 7.64 121.88C5.93333 120.787 4.58667 119.227 3.6 117.2C2.61333 115.173 2.12 112.733 2.12 109.88C2.12 107.053 2.61333 104.627 3.6 102.6C4.61333 100.547 5.98667 98.9867 7.72 97.92C9.48 96.8267 11.4933 96.28 13.76 96.28C15.4933 96.28 16.9467 96.6267 18.12 97.32C19.2933 97.9867 20.2533 98.7067 21 99.48L19.12 101.6C18.48 100.907 17.7333 100.333 16.88 99.88C16.0533 99.4267 15.0133 99.2 13.76 99.2C12.1333 99.2 10.7067 99.64 9.48 100.52C8.25333 101.373 7.29333 102.587 6.6 104.16C5.93333 105.733 5.6 107.613 5.6 109.8C5.6 112.013 5.92 113.92 6.56 115.52C7.2 117.12 8.12 118.36 9.32 119.24C10.52 120.12 11.9733 120.56 13.68 120.56C14.5867 120.56 15.4533 120.427 16.28 120.16C17.1067 119.867 17.76 119.48 18.24 119V112.16H13V109.4H21.32V120.44C20.4933 121.293 19.4 122.013 18.04 122.6C16.7067 123.187 15.1867 123.48 13.48 123.48ZM29.8244 123V103.56H32.5444L32.8244 108.16H32.9444C33.9577 106.587 35.211 105.347 36.7044 104.44C38.1977 103.533 39.8377 103.08 41.6244 103.08C42.3444 103.08 43.011 103.147 43.6244 103.28C44.2644 103.387 44.8777 103.587 45.4644 103.88L44.7044 106.72C44.0377 106.48 43.4644 106.307 42.9844 106.2C42.5044 106.093 41.8777 106.04 41.1044 106.04C39.6377 106.04 38.2244 106.467 36.8644 107.32C35.531 108.147 34.2777 109.573 33.1044 111.6V123H29.8244ZM57.8088 123.48C56.6088 123.48 55.5021 123.267 54.4888 122.84C53.4754 122.387 52.6754 121.747 52.0888 120.92C51.5021 120.093 51.2088 119.107 51.2088 117.96C51.2088 115.773 52.3021 114.12 54.4888 113C56.6754 111.853 60.2754 111.08 65.2888 110.68C65.2621 109.8 65.0754 108.987 64.7288 108.24C64.4088 107.493 63.8754 106.907 63.1288 106.48C62.3821 106.027 61.3821 105.8 60.1288 105.8C59.3021 105.8 58.4754 105.92 57.6488 106.16C56.8488 106.373 56.0754 106.667 55.3288 107.04C54.6088 107.387 53.9421 107.747 53.3288 108.12L52.0488 105.88C52.6888 105.453 53.4621 105.027 54.3688 104.6C55.3021 104.147 56.3021 103.787 57.3688 103.52C58.4354 103.227 59.5421 103.08 60.6888 103.08C62.4754 103.08 63.9421 103.413 65.0888 104.08C66.2621 104.747 67.1288 105.68 67.6888 106.88C68.2754 108.053 68.5688 109.453 68.5688 111.08V123H65.8888L65.6088 120.36H65.4888C64.4221 121.213 63.2221 121.947 61.8888 122.56C60.5554 123.173 59.1954 123.48 57.8088 123.48ZM58.6888 120.84C59.8088 120.84 60.9154 120.587 62.0088 120.08C63.1021 119.573 64.1954 118.867 65.2888 117.96V112.84C62.5154 113.08 60.3288 113.413 58.7288 113.84C57.1554 114.267 56.0354 114.813 55.3688 115.48C54.7288 116.12 54.4088 116.867 54.4088 117.72C54.4088 118.44 54.6088 119.04 55.0088 119.52C55.4088 119.973 55.9288 120.307 56.5688 120.52C57.2354 120.733 57.9421 120.84 58.6888 120.84ZM75.6731 131.2V103.56H78.3931L78.6731 106.04H78.7931C79.6998 105.187 80.7398 104.48 81.9131 103.92C83.1131 103.36 84.3131 103.08 85.5131 103.08C87.2731 103.08 88.7398 103.493 89.9131 104.32C91.1131 105.12 92.0198 106.267 92.6331 107.76C93.2465 109.227 93.5531 110.973 93.5531 113C93.5531 115.187 93.1398 117.067 92.3131 118.64C91.4865 120.213 90.4065 121.413 89.0731 122.24C87.7398 123.067 86.2865 123.48 84.7131 123.48C83.8331 123.48 82.8598 123.267 81.7931 122.84C80.7531 122.387 79.7931 121.76 78.9131 120.96H78.7931L78.9531 124.64V131.2H75.6731ZM84.1531 120.72C85.2998 120.72 86.3265 120.413 87.2331 119.8C88.1398 119.187 88.8465 118.307 89.3531 117.16C89.8865 115.987 90.1531 114.6 90.1531 113C90.1531 111.587 89.9665 110.347 89.5931 109.28C89.2198 108.187 88.6331 107.347 87.8331 106.76C87.0331 106.147 85.9798 105.84 84.6731 105.84C83.7931 105.84 82.8598 106.08 81.8731 106.56C80.9131 107.013 79.9398 107.747 78.9531 108.76V118.44C79.8865 119.267 80.8198 119.853 81.7531 120.2C82.7131 120.547 83.5131 120.72 84.1531 120.72ZM99.6575 123V94.52H102.938V102.28L102.738 106.88H102.858C103.844 105.813 104.924 104.92 106.098 104.2C107.271 103.453 108.618 103.08 110.138 103.08C112.431 103.08 114.124 103.747 115.218 105.08C116.311 106.413 116.858 108.36 116.858 110.92V123H113.578V111.36C113.578 109.52 113.231 108.16 112.538 107.28C111.844 106.373 110.698 105.92 109.098 105.92C107.951 105.92 106.924 106.213 106.018 106.8C105.111 107.387 104.084 108.267 102.938 109.44V123H99.6575ZM122.802 123V96.76H126.882L130.562 107.96L131.842 112.2H132.002L133.242 107.96L136.962 96.76H141.042V123H137.842V109.88C137.842 109.24 137.855 108.507 137.882 107.68C137.935 106.853 137.989 106 138.042 105.12C138.122 104.24 138.189 103.413 138.242 102.64C138.322 101.84 138.375 101.16 138.402 100.6H138.282L136.802 105.72L133.042 116.04H130.642L126.962 105.72L125.442 100.6H125.362C125.415 101.16 125.469 101.84 125.522 102.64C125.602 103.413 125.669 104.24 125.722 105.12C125.775 106 125.815 106.853 125.842 107.68C125.895 108.507 125.922 109.24 125.922 109.88V123H122.802ZM153.746 123.48C152.546 123.48 151.44 123.267 150.426 122.84C149.413 122.387 148.613 121.747 148.026 120.92C147.44 120.093 147.146 119.107 147.146 117.96C147.146 115.773 148.24 114.12 150.426 113C152.613 111.853 156.213 111.08 161.226 110.68C161.2 109.8 161.013 108.987 160.666 108.24C160.346 107.493 159.813 106.907 159.066 106.48C158.32 106.027 157.32 105.8 156.066 105.8C155.24 105.8 154.413 105.92 153.586 106.16C152.786 106.373 152.013 106.667 151.266 107.04C150.546 107.387 149.88 107.747 149.266 108.12L147.986 105.88C148.626 105.453 149.4 105.027 150.306 104.6C151.24 104.147 152.24 103.787 153.306 103.52C154.373 103.227 155.48 103.08 156.626 103.08C158.413 103.08 159.88 103.413 161.026 104.08C162.2 104.747 163.066 105.68 163.626 106.88C164.213 108.053 164.506 109.453 164.506 111.08V123H161.826L161.546 120.36H161.426C160.36 121.213 159.16 121.947 157.826 122.56C156.493 123.173 155.133 123.48 153.746 123.48ZM154.626 120.84C155.746 120.84 156.853 120.587 157.946 120.08C159.04 119.573 160.133 118.867 161.226 117.96V112.84C158.453 113.08 156.266 113.413 154.666 113.84C153.093 114.267 151.973 114.813 151.306 115.48C150.666 116.12 150.346 116.867 150.346 117.72C150.346 118.44 150.546 119.04 150.946 119.52C151.346 119.973 151.866 120.307 152.506 120.52C153.173 120.733 153.88 120.84 154.626 120.84ZM171.611 123V103.56H174.331L174.611 106.88H174.771C175.784 105.787 176.877 104.88 178.051 104.16C179.224 103.44 180.571 103.08 182.091 103.08C184.384 103.08 186.077 103.747 187.171 105.08C188.264 106.413 188.811 108.36 188.811 110.92V123H185.531V111.36C185.531 109.52 185.184 108.16 184.491 107.28C183.797 106.373 182.651 105.92 181.051 105.92C179.904 105.92 178.877 106.213 177.971 106.8C177.064 107.387 176.037 108.267 174.891 109.44V123H171.611Z" fill="#E10098"/>
</svg>
