<svg width="248" height="112" viewBox="0 0 248 112" fill="none" xmlns="http://www.w3.org/2000/svg">
<rect width="248" height="112" rx="20" fill="white"/>
<path d="M181.336 14.8082L163.929 26.3622L164.366 46.7535L181.777 58.2484L200.756 46.8569L201.187 25.7603L181.336 14.8082Z" fill="white"/>
<path d="M163.937 49.8688L162.067 48.7876L182.922 12.666L184.792 13.7472L163.937 49.8688Z" fill="#E10098"/>
<path d="M161.637 45.901H203.351V48.0634H161.637V45.901Z" fill="#E10098"/>
<path d="M183.327 59.1644L162.463 47.1182L163.544 45.2482L184.408 57.2944L183.327 59.1644ZM201.452 27.7654L180.587 15.7209L181.668 13.8509L202.532 25.8971L201.452 27.7654Z" fill="#E10098"/>
<path d="M163.549 27.7586L162.468 25.8886L183.351 13.839L184.432 15.709L163.549 27.7586Z" fill="#E10098"/>
<path d="M201.068 49.8688L180.209 13.7438L182.079 12.6626L202.938 48.7876L201.068 49.8688ZM163.291 24.4538H165.453V48.5462H163.291V24.4538ZM199.548 24.4538H201.711V48.5462H199.548V24.4538Z" fill="#E10098"/>
<path d="M182.96 58.2481L182.016 56.6127L200.164 46.1356L201.107 47.771L182.96 58.2481Z" fill="#E10098"/>
<path d="M204.575 49.25C203.971 50.2933 202.978 51.0546 201.814 51.3671C200.65 51.6797 199.409 51.5181 198.363 50.9177C197.32 50.3136 196.559 49.3206 196.246 48.1563C195.934 46.992 196.095 45.7513 196.696 44.7059C197.3 43.6626 198.293 42.9013 199.457 42.5888C200.621 42.2762 201.862 42.4378 202.908 43.0382C205.095 44.3013 205.838 47.0757 204.574 49.25M168.292 28.2958C167.688 29.3391 166.695 30.1004 165.531 30.4129C164.366 30.7255 163.126 30.5639 162.08 29.9635C161.037 29.3594 160.275 28.3661 159.962 27.2014C159.65 26.0367 159.812 24.7955 160.413 23.75C161.017 22.7067 162.01 21.9454 163.174 21.6329C164.338 21.3203 165.579 21.4819 166.624 22.0823C167.668 22.6864 168.429 23.6794 168.742 24.8437C169.054 26.008 168.893 27.2487 168.292 28.2941M160.426 49.25C159.826 48.2046 159.664 46.9639 159.977 45.7996C160.289 44.6353 161.051 43.6423 162.094 43.0382C163.139 42.4378 164.38 42.2762 165.544 42.5888C166.709 42.9013 167.702 43.6626 168.306 44.7059C168.906 45.7513 169.068 46.992 168.755 48.1563C168.443 49.3206 167.681 50.3136 166.638 50.9177C164.45 52.1672 161.674 51.4277 160.426 49.2517M196.709 28.2975C196.109 27.2521 195.947 26.0114 196.26 24.8471C196.572 23.6828 197.334 22.6898 198.377 22.0857C199.422 21.4853 200.663 21.3237 201.827 21.6363C202.992 21.9488 203.985 22.7101 204.589 23.7534C205.189 24.7988 205.351 26.0395 205.038 27.2038C204.726 28.3681 203.964 29.3611 202.921 29.9652C201.876 30.5656 200.635 30.7272 199.471 30.4146C198.306 30.1021 197.313 29.3408 196.709 28.2975M182.501 62C181.602 62 180.723 61.7334 179.975 61.2338C179.227 60.7342 178.645 60.0241 178.301 59.1934C177.957 58.3627 177.867 57.4486 178.042 56.5667C178.218 55.6849 178.651 54.8749 179.287 54.2392C179.923 53.6036 180.733 53.1708 181.615 52.9955C182.497 52.8203 183.411 52.9106 184.242 53.2549C185.072 53.5992 185.782 54.1822 186.281 54.9299C186.781 55.6777 187.047 56.5568 187.047 57.4559C187.043 58.6604 186.563 59.8146 185.712 60.6662C184.86 61.5177 183.705 61.9973 182.501 62M182.501 20.0916C181.904 20.0925 181.312 19.9755 180.76 19.7474C180.208 19.5193 179.707 19.1845 179.284 18.7622C178.862 18.3399 178.527 17.8384 178.299 17.2865C178.071 16.7345 177.954 16.143 177.955 15.5458C177.955 14.3404 178.434 13.1844 179.286 12.332C180.138 11.4797 181.295 11.0009 182.5 11.0009C183.705 11.0009 184.861 11.4797 185.714 12.332C186.566 13.1844 187.045 14.3404 187.045 15.5458C187.046 16.1427 186.928 16.7339 186.7 17.2855C186.472 17.8372 186.138 18.3384 185.715 18.7605C185.293 19.1826 184.792 19.5172 184.24 19.7454C183.689 19.9735 183.098 20.0906 182.501 20.0899" fill="#E10098"/>
<path d="M152.431 36.8355L99.1505 37.267L99.2978 22.0582C151.531 21.8415 151.814 26.8219 152.433 36.8375L152.431 36.8355Z" fill="white"/>
<path d="M98.4219 38.0014C98.1917 37.7615 98.0592 37.4444 98.0505 37.112L97.9878 22.0084C97.9924 21.6623 98.1311 21.3316 98.3748 21.0858C98.6185 20.8401 98.9481 20.6986 99.2941 20.6912C150.792 20.4775 153.121 25.1878 153.745 36.7748C153.788 37.1463 153.654 37.5146 153.381 37.7734C153.166 38.0693 152.807 38.234 152.439 38.1981L99.3657 38.4203C99.0077 38.4061 98.6728 38.258 98.42 38.0034L98.4219 38.0014ZM100.615 23.3604L100.666 35.7383L151.012 35.5294C151.224 33.5701 150.706 31.6014 149.558 30C148.409 28.3985 146.711 27.2766 144.787 26.8488C138.169 24.359 124.582 23.314 100.615 23.3604V23.3604Z" fill="#E10098"/>
<path d="M99.4232 52.2655L99.5199 37.6332L152.28 37.727C152.496 51.8349 130.263 52.9753 99.4252 52.2635L99.4232 52.2655Z" fill="white"/>
<path d="M98.4831 53.2133C98.2683 52.9636 98.1383 52.6522 98.1116 52.3239L97.8936 37.6929C98.05 37.3124 98.3507 37.0093 98.7298 36.8497C98.8702 36.5502 99.1111 36.3073 99.4094 36.1644L152.481 35.9442C153.224 35.9647 153.823 36.5582 153.849 37.3014C154.003 40.6422 152.693 43.8788 150.267 46.1781C143.217 53.2873 126.229 54.1956 99.4797 53.575C99.1145 53.5746 98.761 53.4459 98.4811 53.2113L98.4831 53.2133ZM100.888 38.9903L100.939 50.8392C121.342 51.3308 141.585 51.0383 148.53 44.138C150.049 42.7212 150.993 40.7949 151.182 38.7265L100.888 38.9903Z" fill="#E10098"/>
<path d="M99.3503 22.4237L99.3939 32.9137C99.3981 32.9766 99.3888 33.0398 99.3668 33.099C99.3447 33.1581 99.3103 33.2119 99.2658 33.2567C99.2214 33.3016 99.1679 33.3364 99.1089 33.359C99.0499 33.3815 98.9868 33.3913 98.9238 33.3876L85.4616 24.7371C84.9035 24.3795 84.6548 23.6942 84.8449 23.0601C85.035 22.426 85.6272 21.9949 86.29 22.0059L99.1382 22.0057C99.1382 22.0057 99.3495 22.2152 99.3503 22.4237V22.4237Z" fill="white"/>
<path d="M84.1552 25.5291C83.8085 25.1765 83.5579 24.7409 83.4275 24.2639C83.2971 23.7869 83.2912 23.2844 83.4103 22.8044C83.7731 21.6092 84.8789 20.7904 86.1297 20.8009L98.9775 20.6945C99.4145 20.7172 99.8279 20.9001 100.139 21.2083C100.449 21.5164 100.636 21.9283 100.662 22.3651L100.705 32.8551C100.724 33.4607 100.402 34.0304 99.8718 34.3276C99.3421 34.6248 98.6674 34.6099 98.141 34.2837L84.6787 25.6331L84.1552 25.5291ZM97.9915 23.3752L86.1406 23.4244L98.0785 31.0842L97.9915 23.3752Z" fill="#E10098"/>
<path d="M152.441 39.038C152.338 36.179 150.034 33.8934 147.174 33.8148L99.717 33.9586L99.6968 41.8784L146.855 44.7763C148.374 44.8054 149.835 44.2054 150.892 43.1155C151.95 42.0255 152.512 40.5501 152.443 39.0361L152.441 39.038Z" fill="white"/>
<path d="M98.5434 42.6188C98.3132 42.3789 98.1807 42.0618 98.172 41.7294L98.1389 33.7568C98.1434 33.4107 98.2822 33.0799 98.5259 32.8342C98.7696 32.5885 99.0992 32.447 99.4452 32.4396L146.855 32.3471C150.619 32.3354 153.684 35.375 153.702 39.1371C153.709 41.0251 152.94 42.8277 151.573 44.1275C150.197 45.4036 148.367 46.072 146.493 45.9834L99.334 43.0855C99.0211 43.0337 98.7411 42.8658 98.5454 42.6168L98.5434 42.6188ZM100.665 34.8987L100.634 40.1951L146.745 43.2015C147.886 43.2755 149.007 42.8755 149.836 42.0874C150.664 41.2993 151.132 40.1881 151.082 39.0418C151.066 36.7546 149.208 34.9117 146.921 34.9153L100.665 34.8987Z" fill="#E10098"/>
<path d="M54.3355 42.7491C54.1773 42.7739 54.0312 42.8485 53.9184 42.9622C53.8057 43.0759 53.7322 43.2227 53.7088 43.381L50.2177 49.0064C49.7661 49.6435 48.9629 49.9281 48.1912 49.7385C47.8204 49.6431 47.4896 49.4325 47.2463 49.1369C47.0029 48.8414 46.8597 48.4763 46.8372 48.0941L46.5171 33.9886L91.4812 33.6251L99.2757 41.3551L99.3192 51.8451C83.9798 50.8804 68.8446 47.82 54.3355 42.7491V42.7491Z" fill="white"/>
<path d="M46.1842 50.0201C45.5996 49.4168 45.2539 48.5883 45.284 47.7681L45.227 34.0293C45.1841 33.6577 45.3183 33.2894 45.5906 33.0307C45.8433 32.7916 46.187 32.6742 46.5333 32.7121L91.6848 32.4717C91.9452 32.4626 92.2019 32.5351 92.4192 32.679L100.265 40.46C100.541 40.5905 100.764 40.8117 100.897 41.0867L100.94 51.5767C100.958 51.966 100.782 52.3404 100.473 52.5738C100.347 52.7083 100.191 52.8119 100.018 52.8764C99.8457 52.9409 99.6604 52.9646 99.477 52.9457L98.6902 52.8978C83.6214 51.5939 68.7743 48.4137 54.4935 43.4308L51.2645 48.6892C51.0155 49.0951 50.6791 49.4402 50.2798 49.6994C49.8805 49.9587 49.4284 50.1255 48.9564 50.1878C48.4844 50.25 48.0045 50.2062 47.5516 50.0593C47.0988 49.9125 46.6844 49.6664 46.3387 49.339L46.1842 50.0201ZM47.9603 35.3808L47.9588 47.8081C47.9655 47.9172 48.012 48.02 48.0896 48.0969C48.1672 48.1738 48.2703 48.2195 48.3794 48.2253C48.4715 48.2099 48.5564 48.166 48.6221 48.0997C48.6878 48.0334 48.7311 47.9482 48.7457 47.856L52.2367 42.2306C52.7387 41.3849 53.7656 41.005 54.6972 41.3295C68.6562 46.1158 83.1445 49.1899 97.8443 50.4843L97.8086 41.8823L90.7527 34.8847L47.9603 35.3808Z" fill="#E10098"/>
<path d="M35.7339 34.0155L46.2239 33.972L46.2909 50.1259L34.2768 36.4366C33.8559 35.9526 33.7901 35.2488 34.1241 34.6948C34.4581 34.1408 35.1079 33.8687 35.7339 34.0195L35.7339 34.0155Z" fill="white"/>
<path d="M45.6634 51.0704L33.7007 37.4321C33.0089 36.6051 32.8703 35.4335 33.2931 34.4701C33.7159 33.5066 34.7004 32.8417 35.7799 32.8078L46.2699 32.7642C46.616 32.7688 46.9467 32.9075 47.1925 33.1512C47.4382 33.3949 47.5797 33.7245 47.5871 34.0705L47.6537 50.1182C47.5694 50.6613 47.1503 51.0839 46.6098 51.1707C46.2915 51.2468 45.959 51.2108 45.6654 51.0685L45.6634 51.0704ZM35.7375 35.3784L45.5894 46.5081L45.1773 35.3392L35.7375 35.3784Z" fill="#E10098"/>
<path d="M99.3814 42.7215L87.1236 33.8044L99.3425 33.8068L99.3814 42.7215Z" fill="white"/>
<path d="M86.1348 34.8016C85.7636 34.4531 85.6395 33.9187 85.8145 33.4381C85.8536 33.1743 85.976 32.93 86.1638 32.7406C86.3516 32.5513 86.5949 32.4269 86.8583 32.3855L99.0767 32.2817C99.8202 32.3022 100.419 32.8957 100.445 33.6389L100.486 42.5556C100.435 42.7862 100.319 42.9976 100.153 43.1654C99.9868 43.3331 99.7763 43.4503 99.5461 43.5035C99.3307 43.6329 99.0826 43.6974 98.8314 43.6894C98.5802 43.6814 98.3367 43.6011 98.13 43.4582L85.9788 34.6469L86.1348 34.8016ZM97.9894 35.1713L91.1731 35.1996L97.9589 40.155L97.9894 35.1713Z" fill="#E10098"/>
<path d="M99.3855 42.7176L91.0202 36.3016C90.7768 36.1497 90.5888 35.9233 90.4842 35.6561C90.3795 35.3889 90.3637 35.0951 90.4391 34.8182C90.5146 34.5413 90.6772 34.2961 90.903 34.119C91.1287 33.9418 91.4056 33.8421 91.6924 33.8346L99.3505 33.8029L99.3855 42.7176Z" fill="white"/>
<path d="M89.8141 37.0952C89.1189 36.3941 88.857 35.3745 89.1225 34.4235C89.2789 33.8635 89.6138 33.37 90.0762 33.0177C90.5387 32.6655 91.1035 32.4738 91.6848 32.4717L99.3429 32.44C100.086 32.4605 100.685 33.0539 100.711 33.7972L100.748 42.7139C100.756 42.972 100.689 43.227 100.555 43.4478C100.421 43.6687 100.226 43.8459 99.9936 43.958C99.7609 44.0702 99.5007 44.1124 99.2445 44.0796C98.9882 44.0468 98.7471 43.9403 98.5501 43.7732L90.2382 37.4101L89.8141 37.0952ZM91.7471 35.1461L98.0094 39.9975L97.9889 35.0691L91.6957 35.0952L91.7471 35.1461Z" fill="#E10098"/>
<path d="M38.48 90.48C36.2933 90.48 34.3467 89.9467 32.64 88.88C30.9333 87.7867 29.5867 86.2267 28.6 84.2C27.6133 82.1733 27.12 79.7333 27.12 76.88C27.12 74.0533 27.6133 71.6267 28.6 69.6C29.6133 67.5467 30.9867 65.9867 32.72 64.92C34.48 63.8267 36.4933 63.28 38.76 63.28C40.4933 63.28 41.9467 63.6267 43.12 64.32C44.2933 64.9867 45.2533 65.7067 46 66.48L44.12 68.6C43.48 67.9067 42.7333 67.3333 41.88 66.88C41.0533 66.4267 40.0133 66.2 38.76 66.2C37.1333 66.2 35.7067 66.64 34.48 67.52C33.2533 68.3733 32.2933 69.5867 31.6 71.16C30.9333 72.7333 30.6 74.6133 30.6 76.8C30.6 79.0133 30.92 80.92 31.56 82.52C32.2 84.12 33.12 85.36 34.32 86.24C35.52 87.12 36.9733 87.56 38.68 87.56C39.5867 87.56 40.4533 87.4267 41.28 87.16C42.1067 86.8667 42.76 86.48 43.24 86V79.16H38V76.4H46.32V87.44C45.4933 88.2933 44.4 89.0133 43.04 89.6C41.7067 90.1867 40.1867 90.48 38.48 90.48ZM54.8244 90V70.56H57.5444L57.8244 75.16H57.9444C58.9577 73.5867 60.211 72.3467 61.7044 71.44C63.1977 70.5333 64.8377 70.08 66.6244 70.08C67.3444 70.08 68.011 70.1467 68.6244 70.28C69.2644 70.3867 69.8777 70.5867 70.4644 70.88L69.7044 73.72C69.0377 73.48 68.4644 73.3067 67.9844 73.2C67.5044 73.0933 66.8777 73.04 66.1044 73.04C64.6377 73.04 63.2244 73.4667 61.8644 74.32C60.531 75.1467 59.2777 76.5733 58.1044 78.6V90H54.8244ZM82.8088 90.48C81.6088 90.48 80.5021 90.2667 79.4888 89.84C78.4754 89.3867 77.6754 88.7467 77.0888 87.92C76.5021 87.0933 76.2088 86.1067 76.2088 84.96C76.2088 82.7733 77.3021 81.12 79.4888 80C81.6754 78.8533 85.2754 78.08 90.2888 77.68C90.2621 76.8 90.0754 75.9867 89.7288 75.24C89.4088 74.4933 88.8754 73.9067 88.1288 73.48C87.3821 73.0267 86.3821 72.8 85.1288 72.8C84.3021 72.8 83.4754 72.92 82.6488 73.16C81.8488 73.3733 81.0754 73.6667 80.3288 74.04C79.6088 74.3867 78.9421 74.7467 78.3288 75.12L77.0488 72.88C77.6888 72.4533 78.4621 72.0267 79.3688 71.6C80.3021 71.1467 81.3021 70.7867 82.3688 70.52C83.4354 70.2267 84.5421 70.08 85.6888 70.08C87.4754 70.08 88.9421 70.4133 90.0888 71.08C91.2621 71.7467 92.1288 72.68 92.6888 73.88C93.2754 75.0533 93.5688 76.4533 93.5688 78.08V90H90.8888L90.6088 87.36H90.4888C89.4221 88.2133 88.2221 88.9467 86.8888 89.56C85.5554 90.1733 84.1954 90.48 82.8088 90.48ZM83.6888 87.84C84.8088 87.84 85.9154 87.5867 87.0088 87.08C88.1021 86.5733 89.1954 85.8667 90.2888 84.96V79.84C87.5154 80.08 85.3288 80.4133 83.7288 80.84C82.1554 81.2667 81.0354 81.8133 80.3688 82.48C79.7288 83.12 79.4088 83.8667 79.4088 84.72C79.4088 85.44 79.6088 86.04 80.0088 86.52C80.4088 86.9733 80.9288 87.3067 81.5688 87.52C82.2354 87.7333 82.9421 87.84 83.6888 87.84ZM100.673 98.2V70.56H103.393L103.673 73.04H103.793C104.7 72.1867 105.74 71.48 106.913 70.92C108.113 70.36 109.313 70.08 110.513 70.08C112.273 70.08 113.74 70.4933 114.913 71.32C116.113 72.12 117.02 73.2667 117.633 74.76C118.246 76.2267 118.553 77.9733 118.553 80C118.553 82.1867 118.14 84.0667 117.313 85.64C116.486 87.2133 115.406 88.4133 114.073 89.24C112.74 90.0667 111.286 90.48 109.713 90.48C108.833 90.48 107.86 90.2667 106.793 89.84C105.753 89.3867 104.793 88.76 103.913 87.96H103.793L103.953 91.64V98.2H100.673ZM109.153 87.72C110.3 87.72 111.326 87.4133 112.233 86.8C113.14 86.1867 113.846 85.3067 114.353 84.16C114.886 82.9867 115.153 81.6 115.153 80C115.153 78.5867 114.966 77.3467 114.593 76.28C114.22 75.1867 113.633 74.3467 112.833 73.76C112.033 73.1467 110.98 72.84 109.673 72.84C108.793 72.84 107.86 73.08 106.873 73.56C105.913 74.0133 104.94 74.7467 103.953 75.76V85.44C104.886 86.2667 105.82 86.8533 106.753 87.2C107.713 87.5467 108.513 87.72 109.153 87.72ZM124.658 90V61.52H127.938V69.28L127.738 73.88H127.858C128.844 72.8133 129.924 71.92 131.098 71.2C132.271 70.4533 133.618 70.08 135.138 70.08C137.431 70.08 139.124 70.7467 140.218 72.08C141.311 73.4133 141.858 75.36 141.858 77.92V90H138.578V78.36C138.578 76.52 138.231 75.16 137.538 74.28C136.844 73.3733 135.698 72.92 134.098 72.92C132.951 72.92 131.924 73.2133 131.018 73.8C130.111 74.3867 129.084 75.2667 127.938 76.44V90H124.658ZM147.802 90V63.76H151.882L155.562 74.96L156.842 79.2H157.002L158.242 74.96L161.962 63.76H166.042V90H162.842V76.88C162.842 76.24 162.855 75.5067 162.882 74.68C162.935 73.8533 162.989 73 163.042 72.12C163.122 71.24 163.189 70.4133 163.242 69.64C163.322 68.84 163.375 68.16 163.402 67.6H163.282L161.802 72.72L158.042 83.04H155.642L151.962 72.72L150.442 67.6H150.362C150.415 68.16 150.469 68.84 150.522 69.64C150.602 70.4133 150.669 71.24 150.722 72.12C150.775 73 150.815 73.8533 150.842 74.68C150.895 75.5067 150.922 76.24 150.922 76.88V90H147.802ZM178.746 90.48C177.546 90.48 176.44 90.2667 175.426 89.84C174.413 89.3867 173.613 88.7467 173.026 87.92C172.44 87.0933 172.146 86.1067 172.146 84.96C172.146 82.7733 173.24 81.12 175.426 80C177.613 78.8533 181.213 78.08 186.226 77.68C186.2 76.8 186.013 75.9867 185.666 75.24C185.346 74.4933 184.813 73.9067 184.066 73.48C183.32 73.0267 182.32 72.8 181.066 72.8C180.24 72.8 179.413 72.92 178.586 73.16C177.786 73.3733 177.013 73.6667 176.266 74.04C175.546 74.3867 174.88 74.7467 174.266 75.12L172.986 72.88C173.626 72.4533 174.4 72.0267 175.306 71.6C176.24 71.1467 177.24 70.7867 178.306 70.52C179.373 70.2267 180.48 70.08 181.626 70.08C183.413 70.08 184.88 70.4133 186.026 71.08C187.2 71.7467 188.066 72.68 188.626 73.88C189.213 75.0533 189.506 76.4533 189.506 78.08V90H186.826L186.546 87.36H186.426C185.36 88.2133 184.16 88.9467 182.826 89.56C181.493 90.1733 180.133 90.48 178.746 90.48ZM179.626 87.84C180.746 87.84 181.853 87.5867 182.946 87.08C184.04 86.5733 185.133 85.8667 186.226 84.96V79.84C183.453 80.08 181.266 80.4133 179.666 80.84C178.093 81.2667 176.973 81.8133 176.306 82.48C175.666 83.12 175.346 83.8667 175.346 84.72C175.346 85.44 175.546 86.04 175.946 86.52C176.346 86.9733 176.866 87.3067 177.506 87.52C178.173 87.7333 178.88 87.84 179.626 87.84ZM196.611 90V70.56H199.331L199.611 73.88H199.771C200.784 72.7867 201.877 71.88 203.051 71.16C204.224 70.44 205.571 70.08 207.091 70.08C209.384 70.08 211.077 70.7467 212.171 72.08C213.264 73.4133 213.811 75.36 213.811 77.92V90H210.531V78.36C210.531 76.52 210.184 75.16 209.491 74.28C208.797 73.3733 207.651 72.92 206.051 72.92C204.904 72.92 203.877 73.2133 202.971 73.8C202.064 74.3867 201.037 75.2667 199.891 76.44V90H196.611Z" fill="#E10098"/>
</svg>
